# ProBuilder 5.0.6
# https://unity3d.com/unity/features/worldbuilding/probuilder
# 20/11/2022 05:27:35 p. m.

mtllib ./ANAQUEL.mtl
o ANAQUEL

g Cube (2)
v -11.90899 -0.03 -15.29
v -12 -0.03 -15.29
v -11.90899 3.087781 -15.29
v -12 3.087781 -15.29
v -12 -0.03 -15.38895
v -12 3.087781 -15.38895
v -11.90899 -0.03 -15.38895
v -11.90899 3.087781 -15.38895
v -11.22704 2.57 -13.29635
v -12.0282 2.57 -13.29635
v -11.22704 2.690734 -13.29635
v -12.0282 2.690734 -13.29635
v -12.0282 2.57 -15.36668
v -12.0282 2.690734 -15.36668
v -11.22704 2.57 -15.36668
v -11.22704 2.690734 -15.36668
v -11.30899 -0.03 -13.34
v -11.4 -0.03 -13.34
v -11.30899 3.087781 -13.34
v -11.4 3.087781 -13.34
v -11.4 -0.03 -13.43895
v -11.4 3.087781 -13.43895
v -11.30899 -0.03 -13.43895
v -11.30899 3.087781 -13.43895
v -11.22704 -0.03 -13.29635
v -12.0282 -0.03 -13.29635
v -11.22704 0.09073416 -13.29635
v -12.0282 0.09073416 -13.29635
v -12.0282 -0.03 -15.36668
v -12.0282 0.09073416 -15.36668
v -11.22704 -0.03 -15.36668
v -11.22704 0.09073416 -15.36668
v -11.90899 -0.03 -13.34
v -12 -0.03 -13.34
v -11.90899 3.087781 -13.34
v -12 3.087781 -13.34
v -12 -0.03 -13.43895
v -12 3.087781 -13.43895
v -11.90899 -0.03 -13.43895
v -11.90899 3.087781 -13.43895
v -11.22704 1.17 -13.29635
v -12.0282 1.17 -13.29635
v -11.22704 1.290734 -13.29635
v -12.0282 1.290734 -13.29635
v -12.0282 1.17 -15.36668
v -12.0282 1.290734 -15.36668
v -11.22704 1.17 -15.36668
v -11.22704 1.290734 -15.36668
v -11.30899 -0.03 -15.29
v -11.4 -0.03 -15.29
v -11.30899 3.087781 -15.29
v -11.4 3.087781 -15.29
v -11.4 -0.03 -15.38895
v -11.4 3.087781 -15.38895
v -11.30899 -0.03 -15.38895
v -11.30899 3.087781 -15.38895

vt 0.45505 0
vt -4.768372E-07 0
vt 0.45505 1.732101
vt -4.768372E-07 1.732101
vt -0.247366 0
vt -0.247366 1.732101
vt -0.45505 0
vt -0.45505 1.732101
vt 0.247366 0
vt 0.247366 1.732101
vt -0.45505 -0.247366
vt 4.768372E-07 -0.247366
vt 0.45505 -0.247366
vt 0.4005818 0
vt 0.4005818 0.1207342
vt -4.768372E-07 0.1207342
vt -1.035166 0
vt -1.035166 0.1207342
vt -0.4005818 0
vt -0.4005818 0.1207342
vt 1.035166 0
vt 1.035166 0.1207342
vt -0.4005818 -1.035166
vt 4.768372E-07 -1.035166
vt 0.4005818 -1.035166

vn 0 0 0.4
vn -0.2 0 0
vn 0 0 -0.4
vn 0.2 0 0
vn 0 1.8 0
vn 0 -1.8 0

usemtl ANAQUEL
f 3/3/1 4/4/1 2/2/1 1/1/1
f 4/4/2 6/6/2 5/5/2 2/2/2
f 6/4/3 8/8/3 7/7/3 5/2/3
f 8/10/4 3/4/4 1/2/4 7/9/4
f 8/11/5 6/12/5 4/2/5 3/7/5
f 1/1/6 2/2/6 5/12/6 7/13/6
f 11/15/1 12/16/1 10/2/1 9/14/1
f 12/16/2 14/18/2 13/17/2 10/2/2
f 14/16/3 16/20/3 15/19/3 13/2/3
f 16/22/4 11/16/4 9/2/4 15/21/4
f 16/23/5 14/24/5 12/2/5 11/19/5
f 9/14/6 10/2/6 13/24/6 15/25/6
f 19/3/1 20/4/1 18/2/1 17/1/1
f 20/4/2 22/6/2 21/5/2 18/2/2
f 22/4/3 24/8/3 23/7/3 21/2/3
f 24/10/4 19/4/4 17/2/4 23/9/4
f 24/11/5 22/12/5 20/2/5 19/7/5
f 17/1/6 18/2/6 21/12/6 23/13/6
f 27/15/1 28/16/1 26/2/1 25/14/1
f 28/16/2 30/18/2 29/17/2 26/2/2
f 30/16/3 32/20/3 31/19/3 29/2/3
f 32/22/4 27/16/4 25/2/4 31/21/4
f 32/23/5 30/24/5 28/2/5 27/19/5
f 25/14/6 26/2/6 29/24/6 31/25/6
f 35/3/1 36/4/1 34/2/1 33/1/1
f 36/4/2 38/6/2 37/5/2 34/2/2
f 38/4/3 40/8/3 39/7/3 37/2/3
f 40/10/4 35/4/4 33/2/4 39/9/4
f 40/11/5 38/12/5 36/2/5 35/7/5
f 33/1/6 34/2/6 37/12/6 39/13/6
f 43/15/1 44/16/1 42/2/1 41/14/1
f 44/16/2 46/18/2 45/17/2 42/2/2
f 46/16/3 48/20/3 47/19/3 45/2/3
f 48/22/4 43/16/4 41/2/4 47/21/4
f 48/23/5 46/24/5 44/2/5 43/19/5
f 41/14/6 42/2/6 45/24/6 47/25/6
f 51/3/1 52/4/1 50/2/1 49/1/1
f 52/4/2 54/6/2 53/5/2 50/2/2
f 54/4/3 56/8/3 55/7/3 53/2/3
f 56/10/4 51/4/4 49/2/4 55/9/4
f 56/11/5 54/12/5 52/2/5 51/7/5
f 49/1/6 50/2/6 53/12/6 55/13/6

